# xmcd
#
# Track frame offsets: 
#        150
#        13808
#        29055
#        42878
#        57433
#        70818
#        84785
#        98378
#        111923
#        126360
#        139988
#        154745
#        168755
#        181903
#
# Disc length: 2616 seconds
#
# Revision: 2
# Processed by: cddbd v1.5.1PL0 Copyright (c) Steve Scherf et al.
# Submitted via: ExactAudioCopy v0.95a5
#
DISCID=b50a360e
DTITLE=Various Artist - Please Warm My Weiner- Old Time Hokum Blues
DYEAR=1992
DGENRE=Blues
TTITLE0=Whistling Bob Howe and Frankie Griggs - The Coldest Stuff In Tow
TTITLE0=n
TTITLE1=Rufus and Ben Quillian - Satisfaction Blues
TTITLE2=Memphis Minnie - Banana Man Blues
TTITLE3=Butterbeans and Susie - Elevator Papa, Switchboard Mama
TTITLE4=Tommy Bradley and James Cole - Adam and Eve
TTITLE5=Robert and Charlie Hicks - Darktown Gambling- The Crap Game
TTITLE6=Hokum Boys - I Had To Give Up Gym
TTITLE7=Bo Carter - Please Warm My Weiner
TTITLE8=Papa Charlie Jackson - You Put It In, I'll Take It Out
TTITLE9=Yazoo All Stars - Hometown Skiffle Part 1
TTITLE10=Yazoo All Stars - Hometown Skiffle Part 2
TTITLE11=Buddie Burton - Ham Fatchet Blues Part 1
TTITLE12=Leola B. and Kid Wesley Wilson - Uncle Joe
TTITLE13=Georgia Tom and Tampa Red - The Alley Crap Game
EXTD=LABEL =Yazoo\nID =Yazoo1043\nUPC =016351-014320\nCOPYRIGHT =1
EXTD=992
EXTT0=1935
EXTT1=1930
EXTT2=1934
EXTT3=1930
EXTT4=1930
EXTT5=1930
EXTT6=1929
EXTT7=1935
EXTT8=1934
EXTT9=1929
EXTT10=1929
EXTT11=1928
EXTT12=1929
EXTT13=1928
PLAYORDER=
